#!OML:ASF F:\VICON\USERDATA\INSTALL\rory3\rory3.ASF
:FULLY-SPECIFIED
:DEGREES
329
root 4.83637 16.6636 2.61063 8.48915 -15.7388 -1.17478
lowerback 2.81534 0.401544 -0.675214
upperback -1.55802 0.478281 -0.952846
thorax -3.17695 0.241596 -0.627304
lowerneck -11.3232 0.538464 -0.73763
upperneck 40.9417 0.906371 -0.372265
head 16.6828 0.0955222 0.0857905
rclavicle 7.95139e-016 -4.37326e-015
rhumerus 0.771943 26.6453 -46.3287
rradius 107.106
rwrist -34.2579
rhand -4.78202 -39.4335
rfingers 7.12502
rthumb 21.0028 -68.3162
lclavicle 7.95139e-016 -4.37326e-015
lhumerus 8.96076 -14.2487 42.5068
lradius 95.0032
lwrist 58.4698
lhand -22.5322 -26.891
lfingers 7.12502
lthumb 3.89486 3.05312
rfemur -55.5668 -1.7422 18.2418
rtibia 32.6167
rfoot 37.8157 -0.944771
rtoes 3.84699
lfemur -29.5956 4.31435 -30.1032
ltibia 44.0283
lfoot -21.4127 7.5776
ltoes 16.7208
330
root 4.83383 16.6483 2.6109 8.53383 -15.6271 -1.30945
lowerback 2.88737 0.344444 -0.572443
upperback -1.45867 0.408407 -0.897607
thorax -3.11511 0.20526 -0.624203
lowerneck -11.5504 0.552927 -0.759223
upperneck 40.8579 0.95105 -0.398873
head 16.6943 0.107915 0.0863903
rclavicle 6.72389e-014 3.18055e-015
rhumerus 0.618804 26.8142 -46.6338
rradius 107.003
rwrist -34.0089
rhand -4.83542 -38.8147
rfingers 7.12502
rthumb 20.9515 -67.7032
lclavicle 6.72389e-014 3.18055e-015
lhumerus 8.74636 -14.3469 42.8763
lradius 94.9189
lwrist 58.3231
lhand -22.4049 -27.1316
lfingers 7.12502
lthumb 4.01778 2.81022
rfemur -55.6163 -1.67835 18.3974
rtibia 32.5074
rfoot 38.2635 -0.739996
rtoes 4.7187
lfemur -29.7097 4.22512 -29.9618
ltibia 44.2155
lfoot -21.4452 7.63056
ltoes 16.528
331
root 4.83758 16.6511 2.60528 8.60725 -15.4461 -1.51857
lowerback 2.92186 0.269991 -0.30926
upperback -1.37713 0.3225 -0.837031
thorax -3.04985 0.157867 -0.704529
lowerneck -11.5974 0.60857 -0.77025
upperneck 40.7451 1.04158 -0.398077
head 16.6439 0.145244 0.104533
rclavicle -4.72611e-014 1.98785e-014
rhumerus 0.370555 27.0003 -46.9643
rradius 106.926
rwrist -33.8064
rhand -5.16899 -41.9148
rfingers 7.12502
rthumb 20.631 -70.8383
lclavicle -4.72611e-014 1.98785e-014
lhumerus 8.44392 -14.492 43.2817
lradius 94.8048
lwrist 58.333
lhand -22.6323 -28.294
lfingers 7.12502
lthumb 3.79819 1.6519
rfemur -55.5563 -1.73581 18.6349
rtibia 32.3431
rfoot 38.1137 -1.31737
rtoes 5.11193
lfemur -29.814 4.09349 -29.7422
ltibia 44.3631
lfoot -21.463 7.6834
ltoes 16.4453
332
root 4.83935 16.6468 2.60132 8.65442 -15.3108 -1.63063
lowerback 2.87774 0.230984 -0.140844
upperback -1.30764 0.279469 -0.800738
thorax -2.95313 0.133717 -0.758727
lowerneck -11.4818 0.614694 -0.830337
upperneck 40.5981 1.05289 -0.362664
head 16.5335 0.147839 0.132917
rclavicle -3.98066e-014 -1.11319e-014
rhumerus 0.0163479 27.1619 -47.2701
rradius 106.89
rwrist -33.7032
rhand -5.05613 -40.3113
rfingers 7.12502
rthumb 20.7395 -69.223
lclavicle -3.98066e-014 -1.11319e-014
lhumerus 8.16071 -14.8834 43.5845
lradius 94.5972
lwrist 58.1682
lhand -23.0452 -29.7444
lfingers 7.12502
lthumb 3.39949 0.208224
rfemur -55.5444 -1.6933 18.6659
rtibia 32.299
rfoot 37.966 -2.67276
rtoes 7.05511
lfemur -29.9845 3.93574 -29.6077
ltibia 44.6089
lfoot -21.5682 7.68289
ltoes 16.6514
